<mxfile host="app.diagrams.net" modified="2023-11-10T23:59:45.919Z" agent="Mozilla/5.0 (Macintosh; Intel Mac OS X 10.15; rv:120.0) Gecko/20100101 Firefox/120.0" etag="YyAaKwXidv_XJ5Wo4uNJ" version="22.1.0" type="device">
  <diagram id="99136bbf-b1d7-fc77-4446-920ab02a96c1" name="Page-1">
    <mxGraphModel dx="1242" dy="834" grid="1" gridSize="10" guides="1" tooltips="1" connect="1" arrows="1" fold="1" page="1" pageScale="1" pageWidth="827" pageHeight="1169" background="none" math="0" shadow="0">
      <root>
        <mxCell id="0" />
        <mxCell id="1" value="Rooms" style="locked=1;" parent="0" />
        <mxCell id="-AKLjn0GjbrHsESCOIPd-254" value="" style="verticalLabelPosition=bottom;verticalAlign=top;html=1;shape=mxgraph.basic.rect;fillColor2=none;strokeWidth=1;size=20;indent=5;fontSize=13;fillColor=none;" parent="1" vertex="1">
          <mxGeometry x="6" y="8" width="1029" height="717" as="geometry" />
        </mxCell>
        <mxCell id="156" value="" style="rounded=0;whiteSpace=wrap;html=1;strokeWidth=1;fillColor=#ffffff;" parent="1" vertex="1">
          <mxGeometry x="632" y="13" width="398" height="340" as="geometry" />
        </mxCell>
        <mxCell id="131" value="" style="rounded=0;whiteSpace=wrap;html=1;strokeWidth=1;fillColor=#ffffff;" parent="1" vertex="1">
          <mxGeometry x="366" y="13" width="260" height="340" as="geometry" />
        </mxCell>
        <mxCell id="12" value="" style="rounded=0;whiteSpace=wrap;html=1;" parent="1" vertex="1">
          <mxGeometry x="10" y="13" width="350" height="707" as="geometry" />
        </mxCell>
        <mxCell id="89rOBZgjkvMpjU4xvndv-252" value="" style="rounded=0;whiteSpace=wrap;html=1;strokeWidth=1;fillColor=#ffffff;" parent="1" vertex="1">
          <mxGeometry x="365" y="465" width="262" height="255" as="geometry" />
        </mxCell>
        <mxCell id="89rOBZgjkvMpjU4xvndv-258" value="" style="rounded=0;whiteSpace=wrap;html=1;strokeWidth=1;fillColor=#ffffff;" parent="1" vertex="1">
          <mxGeometry x="632" y="460" width="398" height="260" as="geometry" />
        </mxCell>
        <mxCell id="157" value="" style="rounded=0;whiteSpace=wrap;html=1;strokeWidth=1;fillColor=#ffffff;" parent="1" vertex="1">
          <mxGeometry x="365" y="358" width="665" height="102" as="geometry" />
        </mxCell>
        <mxCell id="210" value="" style="verticalLabelPosition=bottom;html=1;verticalAlign=top;align=center;shape=mxgraph.floorplan.doorRight;aspect=fixed;rotation=90;" parent="1" vertex="1">
          <mxGeometry x="960.35" y="367.42" width="71.93" height="77.07" as="geometry" />
        </mxCell>
        <mxCell id="89rOBZgjkvMpjU4xvndv-259" value="" style="verticalLabelPosition=bottom;html=1;verticalAlign=top;align=center;shape=mxgraph.floorplan.doorRight;aspect=fixed;rotation=0;flipH=1;" parent="1" vertex="1">
          <mxGeometry x="381" y="460" width="65.33" height="70" as="geometry" />
        </mxCell>
        <mxCell id="89rOBZgjkvMpjU4xvndv-260" value="" style="verticalLabelPosition=bottom;html=1;verticalAlign=top;align=center;shape=mxgraph.floorplan.doorRight;aspect=fixed;rotation=-180;flipH=1;" parent="1" vertex="1">
          <mxGeometry x="560" y="293.71" width="60" height="64.29" as="geometry" />
        </mxCell>
        <mxCell id="89rOBZgjkvMpjU4xvndv-273" value="" style="verticalLabelPosition=bottom;html=1;verticalAlign=top;align=center;shape=mxgraph.floorplan.doorRight;aspect=fixed;rotation=90;flipH=1;" parent="1" vertex="1">
          <mxGeometry x="289.62" y="367.9" width="76.27" height="74.85" as="geometry" />
        </mxCell>
        <mxCell id="89rOBZgjkvMpjU4xvndv-274" value="" style="verticalLabelPosition=bottom;html=1;verticalAlign=top;align=center;shape=mxgraph.floorplan.doorRight;aspect=fixed;rotation=-180;flipH=1;" parent="1" vertex="1">
          <mxGeometry x="744" y="293.71" width="60" height="64.29" as="geometry" />
        </mxCell>
        <mxCell id="-AKLjn0GjbrHsESCOIPd-220" value="" style="edgeStyle=orthogonalEdgeStyle;rounded=0;orthogonalLoop=1;jettySize=auto;html=1;fontSize=13;" parent="1" source="89rOBZgjkvMpjU4xvndv-275" target="89rOBZgjkvMpjU4xvndv-256" edge="1">
          <mxGeometry relative="1" as="geometry" />
        </mxCell>
        <mxCell id="89rOBZgjkvMpjU4xvndv-275" value="" style="rounded=0;whiteSpace=wrap;html=1;strokeWidth=1;fillColor=#ffffff;" parent="1" vertex="1">
          <mxGeometry x="843" y="460" width="187" height="5" as="geometry" />
        </mxCell>
        <mxCell id="89rOBZgjkvMpjU4xvndv-276" value="" style="rounded=0;whiteSpace=wrap;html=1;strokeWidth=1;fillColor=#ffffff;" parent="1" vertex="1">
          <mxGeometry x="893" y="465" width="137" height="255" as="geometry" />
        </mxCell>
        <mxCell id="129" value="Details" style="locked=1;" parent="0" />
        <mxCell id="-AKLjn0GjbrHsESCOIPd-255" value="" style="verticalLabelPosition=bottom;verticalAlign=top;html=1;shape=mxgraph.basic.rect;fillColor2=none;strokeWidth=1;size=20;indent=5;fontSize=13;fillColor=none;" parent="129" vertex="1">
          <mxGeometry x="6" y="8" width="1029" height="717" as="geometry" />
        </mxCell>
        <mxCell id="58" value="" style="verticalLabelPosition=bottom;html=1;verticalAlign=top;align=center;strokeWidth=1;shape=mxgraph.floorplan.printer;" parent="129" vertex="1">
          <mxGeometry x="923" y="15" width="40" height="47" as="geometry" />
        </mxCell>
        <mxCell id="90" value="" style="verticalLabelPosition=bottom;html=1;verticalAlign=top;align=center;strokeWidth=1;shape=mxgraph.floorplan.refrigerator;rotation=0;" parent="129" vertex="1">
          <mxGeometry x="859" y="466" width="34" height="41" as="geometry" />
        </mxCell>
        <mxCell id="89rOBZgjkvMpjU4xvndv-225" value="" style="group;rotation=90;" parent="129" vertex="1" connectable="0">
          <mxGeometry x="50" y="70" width="130" height="80" as="geometry" />
        </mxCell>
        <mxCell id="97" value="" style="verticalLabelPosition=bottom;html=1;verticalAlign=top;align=center;strokeWidth=1;shape=mxgraph.floorplan.chair;rotation=90;" parent="89rOBZgjkvMpjU4xvndv-225" vertex="1">
          <mxGeometry x="75" y="-18" width="30" height="30" as="geometry" />
        </mxCell>
        <mxCell id="98" value="" style="verticalLabelPosition=bottom;html=1;verticalAlign=top;align=center;strokeWidth=1;shape=mxgraph.floorplan.chair;rotation=90;" parent="89rOBZgjkvMpjU4xvndv-225" vertex="1">
          <mxGeometry x="75" y="24" width="30" height="30" as="geometry" />
        </mxCell>
        <mxCell id="99" value="" style="verticalLabelPosition=bottom;html=1;verticalAlign=top;align=center;strokeWidth=1;shape=mxgraph.floorplan.chair;rotation=90;" parent="89rOBZgjkvMpjU4xvndv-225" vertex="1">
          <mxGeometry x="75" y="66" width="30" height="30" as="geometry" />
        </mxCell>
        <mxCell id="115" value="" style="verticalLabelPosition=bottom;html=1;verticalAlign=top;align=center;strokeWidth=1;shape=mxgraph.floorplan.chair;rotation=-90;" parent="89rOBZgjkvMpjU4xvndv-225" vertex="1">
          <mxGeometry x="25" y="66" width="30" height="30" as="geometry" />
        </mxCell>
        <mxCell id="116" value="" style="verticalLabelPosition=bottom;html=1;verticalAlign=top;align=center;strokeWidth=1;shape=mxgraph.floorplan.chair;rotation=-90;" parent="89rOBZgjkvMpjU4xvndv-225" vertex="1">
          <mxGeometry x="25" y="24" width="30" height="30" as="geometry" />
        </mxCell>
        <mxCell id="117" value="" style="verticalLabelPosition=bottom;html=1;verticalAlign=top;align=center;strokeWidth=1;shape=mxgraph.floorplan.chair;rotation=-90;" parent="89rOBZgjkvMpjU4xvndv-225" vertex="1">
          <mxGeometry x="25" y="-18" width="30" height="30" as="geometry" />
        </mxCell>
        <mxCell id="69" value="" style="verticalLabelPosition=bottom;html=1;verticalAlign=top;align=center;strokeWidth=1;shape=mxgraph.floorplan.table;rotation=90;" parent="89rOBZgjkvMpjU4xvndv-225" vertex="1">
          <mxGeometry y="15" width="130" height="50" as="geometry" />
        </mxCell>
        <mxCell id="89rOBZgjkvMpjU4xvndv-234" value="" style="group;rotation=90;" parent="129" vertex="1" connectable="0">
          <mxGeometry x="50" y="380" width="130" height="80" as="geometry" />
        </mxCell>
        <mxCell id="89rOBZgjkvMpjU4xvndv-235" value="" style="verticalLabelPosition=bottom;html=1;verticalAlign=top;align=center;strokeWidth=1;shape=mxgraph.floorplan.chair;rotation=90;" parent="89rOBZgjkvMpjU4xvndv-234" vertex="1">
          <mxGeometry x="75" y="-18" width="30" height="30" as="geometry" />
        </mxCell>
        <mxCell id="89rOBZgjkvMpjU4xvndv-236" value="" style="verticalLabelPosition=bottom;html=1;verticalAlign=top;align=center;strokeWidth=1;shape=mxgraph.floorplan.chair;rotation=90;" parent="89rOBZgjkvMpjU4xvndv-234" vertex="1">
          <mxGeometry x="75" y="24" width="30" height="30" as="geometry" />
        </mxCell>
        <mxCell id="89rOBZgjkvMpjU4xvndv-237" value="" style="verticalLabelPosition=bottom;html=1;verticalAlign=top;align=center;strokeWidth=1;shape=mxgraph.floorplan.chair;rotation=90;" parent="89rOBZgjkvMpjU4xvndv-234" vertex="1">
          <mxGeometry x="75" y="66" width="30" height="30" as="geometry" />
        </mxCell>
        <mxCell id="89rOBZgjkvMpjU4xvndv-238" value="" style="verticalLabelPosition=bottom;html=1;verticalAlign=top;align=center;strokeWidth=1;shape=mxgraph.floorplan.chair;rotation=-90;" parent="89rOBZgjkvMpjU4xvndv-234" vertex="1">
          <mxGeometry x="25" y="66" width="30" height="30" as="geometry" />
        </mxCell>
        <mxCell id="89rOBZgjkvMpjU4xvndv-239" value="" style="verticalLabelPosition=bottom;html=1;verticalAlign=top;align=center;strokeWidth=1;shape=mxgraph.floorplan.chair;rotation=-90;" parent="89rOBZgjkvMpjU4xvndv-234" vertex="1">
          <mxGeometry x="25" y="24" width="30" height="30" as="geometry" />
        </mxCell>
        <mxCell id="89rOBZgjkvMpjU4xvndv-240" value="" style="verticalLabelPosition=bottom;html=1;verticalAlign=top;align=center;strokeWidth=1;shape=mxgraph.floorplan.chair;rotation=-90;" parent="89rOBZgjkvMpjU4xvndv-234" vertex="1">
          <mxGeometry x="25" y="-18" width="30" height="30" as="geometry" />
        </mxCell>
        <mxCell id="89rOBZgjkvMpjU4xvndv-241" value="" style="verticalLabelPosition=bottom;html=1;verticalAlign=top;align=center;strokeWidth=1;shape=mxgraph.floorplan.table;rotation=90;" parent="89rOBZgjkvMpjU4xvndv-234" vertex="1">
          <mxGeometry y="15" width="130" height="50" as="geometry" />
        </mxCell>
        <mxCell id="89rOBZgjkvMpjU4xvndv-242" value="" style="group;rotation=90;" parent="129" vertex="1" connectable="0">
          <mxGeometry x="50" y="545" width="130" height="80" as="geometry" />
        </mxCell>
        <mxCell id="89rOBZgjkvMpjU4xvndv-243" value="" style="verticalLabelPosition=bottom;html=1;verticalAlign=top;align=center;strokeWidth=1;shape=mxgraph.floorplan.chair;rotation=90;" parent="89rOBZgjkvMpjU4xvndv-242" vertex="1">
          <mxGeometry x="75" y="-18" width="30" height="30" as="geometry" />
        </mxCell>
        <mxCell id="89rOBZgjkvMpjU4xvndv-244" value="" style="verticalLabelPosition=bottom;html=1;verticalAlign=top;align=center;strokeWidth=1;shape=mxgraph.floorplan.chair;rotation=90;" parent="89rOBZgjkvMpjU4xvndv-242" vertex="1">
          <mxGeometry x="75" y="24" width="30" height="30" as="geometry" />
        </mxCell>
        <mxCell id="89rOBZgjkvMpjU4xvndv-245" value="" style="verticalLabelPosition=bottom;html=1;verticalAlign=top;align=center;strokeWidth=1;shape=mxgraph.floorplan.chair;rotation=90;" parent="89rOBZgjkvMpjU4xvndv-242" vertex="1">
          <mxGeometry x="75" y="66" width="30" height="30" as="geometry" />
        </mxCell>
        <mxCell id="89rOBZgjkvMpjU4xvndv-246" value="" style="verticalLabelPosition=bottom;html=1;verticalAlign=top;align=center;strokeWidth=1;shape=mxgraph.floorplan.chair;rotation=-90;" parent="89rOBZgjkvMpjU4xvndv-242" vertex="1">
          <mxGeometry x="25" y="66" width="30" height="30" as="geometry" />
        </mxCell>
        <mxCell id="89rOBZgjkvMpjU4xvndv-247" value="" style="verticalLabelPosition=bottom;html=1;verticalAlign=top;align=center;strokeWidth=1;shape=mxgraph.floorplan.chair;rotation=-90;" parent="89rOBZgjkvMpjU4xvndv-242" vertex="1">
          <mxGeometry x="25" y="24" width="30" height="30" as="geometry" />
        </mxCell>
        <mxCell id="89rOBZgjkvMpjU4xvndv-248" value="" style="verticalLabelPosition=bottom;html=1;verticalAlign=top;align=center;strokeWidth=1;shape=mxgraph.floorplan.chair;rotation=-90;" parent="89rOBZgjkvMpjU4xvndv-242" vertex="1">
          <mxGeometry x="25" y="-18" width="30" height="30" as="geometry" />
        </mxCell>
        <mxCell id="89rOBZgjkvMpjU4xvndv-249" value="" style="verticalLabelPosition=bottom;html=1;verticalAlign=top;align=center;strokeWidth=1;shape=mxgraph.floorplan.table;rotation=90;" parent="89rOBZgjkvMpjU4xvndv-242" vertex="1">
          <mxGeometry y="15" width="130" height="50" as="geometry" />
        </mxCell>
        <mxCell id="89rOBZgjkvMpjU4xvndv-272" value="" style="verticalLabelPosition=bottom;html=1;verticalAlign=top;align=center;strokeWidth=1;shape=mxgraph.floorplan.table;rotation=0;" parent="129" vertex="1">
          <mxGeometry x="417" y="302" width="130" height="50" as="geometry" />
        </mxCell>
        <mxCell id="89rOBZgjkvMpjU4xvndv-271" value="" style="verticalLabelPosition=bottom;html=1;verticalAlign=top;align=center;strokeWidth=1;shape=mxgraph.floorplan.table;rotation=90;" parent="129" vertex="1">
          <mxGeometry x="327" y="212" width="130" height="50" as="geometry" />
        </mxCell>
        <mxCell id="89rOBZgjkvMpjU4xvndv-233" value="" style="verticalLabelPosition=bottom;html=1;verticalAlign=top;align=center;strokeWidth=1;shape=mxgraph.floorplan.table;rotation=90;" parent="129" vertex="1">
          <mxGeometry x="327" y="82" width="130" height="50" as="geometry" />
        </mxCell>
        <mxCell id="89rOBZgjkvMpjU4xvndv-263" value="" style="group;rotation=90;" parent="129" vertex="1" connectable="0">
          <mxGeometry x="50" y="250" width="130" height="80" as="geometry" />
        </mxCell>
        <mxCell id="89rOBZgjkvMpjU4xvndv-264" value="" style="verticalLabelPosition=bottom;html=1;verticalAlign=top;align=center;strokeWidth=1;shape=mxgraph.floorplan.chair;rotation=90;" parent="89rOBZgjkvMpjU4xvndv-263" vertex="1">
          <mxGeometry x="75" y="-18" width="30" height="30" as="geometry" />
        </mxCell>
        <mxCell id="89rOBZgjkvMpjU4xvndv-265" value="" style="verticalLabelPosition=bottom;html=1;verticalAlign=top;align=center;strokeWidth=1;shape=mxgraph.floorplan.chair;rotation=90;" parent="89rOBZgjkvMpjU4xvndv-263" vertex="1">
          <mxGeometry x="75" y="24" width="30" height="30" as="geometry" />
        </mxCell>
        <mxCell id="89rOBZgjkvMpjU4xvndv-266" value="" style="verticalLabelPosition=bottom;html=1;verticalAlign=top;align=center;strokeWidth=1;shape=mxgraph.floorplan.chair;rotation=90;" parent="89rOBZgjkvMpjU4xvndv-263" vertex="1">
          <mxGeometry x="75" y="66" width="30" height="30" as="geometry" />
        </mxCell>
        <mxCell id="89rOBZgjkvMpjU4xvndv-267" value="" style="verticalLabelPosition=bottom;html=1;verticalAlign=top;align=center;strokeWidth=1;shape=mxgraph.floorplan.chair;rotation=-90;" parent="89rOBZgjkvMpjU4xvndv-263" vertex="1">
          <mxGeometry x="25" y="66" width="30" height="30" as="geometry" />
        </mxCell>
        <mxCell id="89rOBZgjkvMpjU4xvndv-268" value="" style="verticalLabelPosition=bottom;html=1;verticalAlign=top;align=center;strokeWidth=1;shape=mxgraph.floorplan.chair;rotation=-90;" parent="89rOBZgjkvMpjU4xvndv-263" vertex="1">
          <mxGeometry x="25" y="24" width="30" height="30" as="geometry" />
        </mxCell>
        <mxCell id="89rOBZgjkvMpjU4xvndv-269" value="" style="verticalLabelPosition=bottom;html=1;verticalAlign=top;align=center;strokeWidth=1;shape=mxgraph.floorplan.chair;rotation=-90;" parent="89rOBZgjkvMpjU4xvndv-263" vertex="1">
          <mxGeometry x="25" y="-18" width="30" height="30" as="geometry" />
        </mxCell>
        <mxCell id="89rOBZgjkvMpjU4xvndv-270" value="" style="verticalLabelPosition=bottom;html=1;verticalAlign=top;align=center;strokeWidth=1;shape=mxgraph.floorplan.table;rotation=90;" parent="89rOBZgjkvMpjU4xvndv-263" vertex="1">
          <mxGeometry y="15" width="130" height="50" as="geometry" />
        </mxCell>
        <mxCell id="89rOBZgjkvMpjU4xvndv-283" value="" style="rounded=0;whiteSpace=wrap;html=1;rotation=90;" parent="129" vertex="1">
          <mxGeometry x="920" y="246" width="80" height="133" as="geometry" />
        </mxCell>
        <mxCell id="19" value="" style="rounded=0;whiteSpace=wrap;html=1;" parent="129" vertex="1">
          <mxGeometry x="280" y="490" width="80" height="190" as="geometry" />
        </mxCell>
        <mxCell id="142" value="" style="verticalLabelPosition=bottom;html=1;verticalAlign=top;align=center;strokeWidth=1;shape=mxgraph.floorplan.copier;fillColor=#ffffff;rotation=-90;" parent="129" vertex="1">
          <mxGeometry x="503" y="91" width="148" height="95" as="geometry" />
        </mxCell>
        <mxCell id="89rOBZgjkvMpjU4xvndv-295" value="" style="group;rotation=90;" parent="129" vertex="1" connectable="0">
          <mxGeometry x="700" y="504" width="125" height="70" as="geometry" />
        </mxCell>
        <mxCell id="89rOBZgjkvMpjU4xvndv-296" value="" style="verticalLabelPosition=bottom;html=1;verticalAlign=top;align=center;strokeWidth=1;shape=mxgraph.floorplan.chair;rotation=90;" parent="89rOBZgjkvMpjU4xvndv-295" vertex="1">
          <mxGeometry x="67.67399267399267" y="-17.125" width="28.846153846153843" height="26.25" as="geometry" />
        </mxCell>
        <mxCell id="89rOBZgjkvMpjU4xvndv-297" value="" style="verticalLabelPosition=bottom;html=1;verticalAlign=top;align=center;strokeWidth=1;shape=mxgraph.floorplan.chair;rotation=90;" parent="89rOBZgjkvMpjU4xvndv-295" vertex="1">
          <mxGeometry x="67.67399267399267" y="19.625" width="28.846153846153843" height="26.25" as="geometry" />
        </mxCell>
        <mxCell id="89rOBZgjkvMpjU4xvndv-298" value="" style="verticalLabelPosition=bottom;html=1;verticalAlign=top;align=center;strokeWidth=1;shape=mxgraph.floorplan.chair;rotation=90;" parent="89rOBZgjkvMpjU4xvndv-295" vertex="1">
          <mxGeometry x="67.67399267399267" y="56.375" width="28.846153846153843" height="26.25" as="geometry" />
        </mxCell>
        <mxCell id="89rOBZgjkvMpjU4xvndv-299" value="" style="verticalLabelPosition=bottom;html=1;verticalAlign=top;align=center;strokeWidth=1;shape=mxgraph.floorplan.chair;rotation=-90;" parent="89rOBZgjkvMpjU4xvndv-295" vertex="1">
          <mxGeometry x="19.597069597069595" y="56.375" width="28.846153846153843" height="26.25" as="geometry" />
        </mxCell>
        <mxCell id="89rOBZgjkvMpjU4xvndv-300" value="" style="verticalLabelPosition=bottom;html=1;verticalAlign=top;align=center;strokeWidth=1;shape=mxgraph.floorplan.chair;rotation=-90;" parent="89rOBZgjkvMpjU4xvndv-295" vertex="1">
          <mxGeometry x="19.597069597069595" y="19.625" width="28.846153846153843" height="26.25" as="geometry" />
        </mxCell>
        <mxCell id="89rOBZgjkvMpjU4xvndv-301" value="" style="verticalLabelPosition=bottom;html=1;verticalAlign=top;align=center;strokeWidth=1;shape=mxgraph.floorplan.chair;rotation=-90;" parent="89rOBZgjkvMpjU4xvndv-295" vertex="1">
          <mxGeometry x="19.597069597069595" y="-17.125" width="28.846153846153843" height="26.25" as="geometry" />
        </mxCell>
        <mxCell id="89rOBZgjkvMpjU4xvndv-302" value="" style="verticalLabelPosition=bottom;html=1;verticalAlign=top;align=center;strokeWidth=1;shape=mxgraph.floorplan.table;rotation=90;" parent="89rOBZgjkvMpjU4xvndv-295" vertex="1">
          <mxGeometry x="-4.4413919413919425" y="11.75" width="125" height="43.75" as="geometry" />
        </mxCell>
        <mxCell id="89rOBZgjkvMpjU4xvndv-312" value="" style="rounded=0;whiteSpace=wrap;html=1;rotation=90;" parent="129" vertex="1">
          <mxGeometry x="572.88" y="519.12" width="152.75" height="34.5" as="geometry" />
        </mxCell>
        <mxCell id="89rOBZgjkvMpjU4xvndv-313" value="" style="verticalLabelPosition=bottom;html=1;verticalAlign=top;align=center;strokeWidth=1;shape=mxgraph.floorplan.refrigerator;rotation=-90;" parent="129" vertex="1">
          <mxGeometry x="628.26" y="619.5" width="50" height="41" as="geometry" />
        </mxCell>
        <mxCell id="-AKLjn0GjbrHsESCOIPd-219" value="" style="rounded=0;whiteSpace=wrap;html=1;rotation=90;" parent="129" vertex="1">
          <mxGeometry x="905.2" y="592.92" width="208.61" height="34.5" as="geometry" />
        </mxCell>
        <mxCell id="89rOBZgjkvMpjU4xvndv-304" value="" style="group;rotation=90;" parent="129" vertex="1" connectable="0">
          <mxGeometry x="700" y="623" width="125" height="70" as="geometry" />
        </mxCell>
        <mxCell id="89rOBZgjkvMpjU4xvndv-305" value="" style="verticalLabelPosition=bottom;html=1;verticalAlign=top;align=center;strokeWidth=1;shape=mxgraph.floorplan.chair;rotation=90;" parent="89rOBZgjkvMpjU4xvndv-304" vertex="1">
          <mxGeometry x="67.67399267399267" y="-17.125" width="28.846153846153843" height="26.25" as="geometry" />
        </mxCell>
        <mxCell id="89rOBZgjkvMpjU4xvndv-306" value="" style="verticalLabelPosition=bottom;html=1;verticalAlign=top;align=center;strokeWidth=1;shape=mxgraph.floorplan.chair;rotation=90;" parent="89rOBZgjkvMpjU4xvndv-304" vertex="1">
          <mxGeometry x="67.67399267399267" y="19.625" width="28.846153846153843" height="26.25" as="geometry" />
        </mxCell>
        <mxCell id="89rOBZgjkvMpjU4xvndv-307" value="" style="verticalLabelPosition=bottom;html=1;verticalAlign=top;align=center;strokeWidth=1;shape=mxgraph.floorplan.chair;rotation=90;" parent="89rOBZgjkvMpjU4xvndv-304" vertex="1">
          <mxGeometry x="67.67399267399267" y="56.375" width="28.846153846153843" height="26.25" as="geometry" />
        </mxCell>
        <mxCell id="89rOBZgjkvMpjU4xvndv-308" value="" style="verticalLabelPosition=bottom;html=1;verticalAlign=top;align=center;strokeWidth=1;shape=mxgraph.floorplan.chair;rotation=-90;" parent="89rOBZgjkvMpjU4xvndv-304" vertex="1">
          <mxGeometry x="19.597069597069595" y="56.375" width="28.846153846153843" height="26.25" as="geometry" />
        </mxCell>
        <mxCell id="89rOBZgjkvMpjU4xvndv-309" value="" style="verticalLabelPosition=bottom;html=1;verticalAlign=top;align=center;strokeWidth=1;shape=mxgraph.floorplan.chair;rotation=-90;" parent="89rOBZgjkvMpjU4xvndv-304" vertex="1">
          <mxGeometry x="19.597069597069595" y="19.625" width="28.846153846153843" height="26.25" as="geometry" />
        </mxCell>
        <mxCell id="89rOBZgjkvMpjU4xvndv-310" value="" style="verticalLabelPosition=bottom;html=1;verticalAlign=top;align=center;strokeWidth=1;shape=mxgraph.floorplan.chair;rotation=-90;" parent="89rOBZgjkvMpjU4xvndv-304" vertex="1">
          <mxGeometry x="19.597069597069595" y="-17.125" width="28.846153846153843" height="26.25" as="geometry" />
        </mxCell>
        <mxCell id="89rOBZgjkvMpjU4xvndv-311" value="" style="verticalLabelPosition=bottom;html=1;verticalAlign=top;align=center;strokeWidth=1;shape=mxgraph.floorplan.table;rotation=90;" parent="89rOBZgjkvMpjU4xvndv-304" vertex="1">
          <mxGeometry x="-4.4413919413919425" y="11.75" width="125" height="43.75" as="geometry" />
        </mxCell>
        <mxCell id="89rOBZgjkvMpjU4xvndv-286" value="" style="rounded=0;whiteSpace=wrap;html=1;rotation=90;" parent="129" vertex="1">
          <mxGeometry x="788.5" y="614.5" width="164" height="46" as="geometry" />
        </mxCell>
        <mxCell id="89rOBZgjkvMpjU4xvndv-314" value="" style="rounded=0;whiteSpace=wrap;html=1;rotation=90;" parent="129" vertex="1">
          <mxGeometry x="595" y="262" width="68" height="7" as="geometry" />
        </mxCell>
        <mxCell id="-AKLjn0GjbrHsESCOIPd-217" value="" style="verticalLabelPosition=middle;verticalAlign=middle;html=1;shape=mxgraph.basic.rect;fillColor2=none;strokeWidth=1;size=6.13;indent=100;fontSize=16;labelPosition=center;align=center;horizontal=1;" parent="129" vertex="1">
          <mxGeometry x="40" y="700" width="160" height="20" as="geometry" />
        </mxCell>
        <mxCell id="-AKLjn0GjbrHsESCOIPd-218" value="" style="rounded=0;whiteSpace=wrap;html=1;rotation=0;" parent="129" vertex="1">
          <mxGeometry x="933" y="466" width="94" height="40" as="geometry" />
        </mxCell>
        <mxCell id="61" value="" style="verticalLabelPosition=bottom;html=1;verticalAlign=top;align=center;strokeWidth=1;shape=mxgraph.floorplan.range_1;rotation=90;" parent="129" vertex="1">
          <mxGeometry x="984" y="519" width="51" height="37" as="geometry" />
        </mxCell>
        <mxCell id="62" value="&lt;div&gt;&lt;br&gt;&lt;/div&gt;" style="verticalLabelPosition=bottom;html=1;verticalAlign=top;align=center;strokeWidth=1;shape=mxgraph.floorplan.sink_2;rotation=90;" parent="129" vertex="1">
          <mxGeometry x="991" y="615" width="45" height="30" as="geometry" />
        </mxCell>
        <mxCell id="-AKLjn0GjbrHsESCOIPd-221" value="" style="rounded=0;whiteSpace=wrap;html=1;rotation=0;" parent="129" vertex="1">
          <mxGeometry x="457" y="466" width="164" height="46" as="geometry" />
        </mxCell>
        <mxCell id="-AKLjn0GjbrHsESCOIPd-222" value="" style="rounded=0;whiteSpace=wrap;html=1;rotation=90;" parent="129" vertex="1">
          <mxGeometry x="556" y="536" width="91" height="46" as="geometry" />
        </mxCell>
        <mxCell id="-AKLjn0GjbrHsESCOIPd-281" value="" style="rounded=0;whiteSpace=wrap;html=1;rotation=-180;" parent="129" vertex="1">
          <mxGeometry x="810" y="326" width="57" height="26" as="geometry" />
        </mxCell>
        <mxCell id="-AKLjn0GjbrHsESCOIPd-282" value="" style="rounded=0;whiteSpace=wrap;html=1;rotation=90;" parent="129" vertex="1">
          <mxGeometry x="840" y="300" width="80" height="26" as="geometry" />
        </mxCell>
        <mxCell id="-AKLjn0GjbrHsESCOIPd-283" value="" style="rounded=0;whiteSpace=wrap;html=1;rotation=90;" parent="129" vertex="1">
          <mxGeometry x="965" y="49" width="90" height="26" as="geometry" />
        </mxCell>
        <mxCell id="-AKLjn0GjbrHsESCOIPd-284" value="" style="rounded=0;whiteSpace=wrap;html=1;rotation=0;" parent="129" vertex="1">
          <mxGeometry x="810" y="17" width="110" height="45" as="geometry" />
        </mxCell>
        <mxCell id="-AKLjn0GjbrHsESCOIPd-286" value="" style="verticalLabelPosition=bottom;verticalAlign=top;html=1;shape=mxgraph.basic.rect;fillColor2=none;strokeWidth=1;size=20;indent=5;fontSize=13;fillColor=none;" parent="129" vertex="1">
          <mxGeometry x="893" y="466" width="40" height="40" as="geometry" />
        </mxCell>
        <object label="Lights" id="-AKLjn0GjbrHsESCOIPd-227">
          <mxCell style="locked=1;" parent="0" visible="0" />
        </object>
        <mxCell id="-AKLjn0GjbrHsESCOIPd-230" value="" style="verticalLabelPosition=bottom;verticalAlign=top;html=1;shape=mxgraph.basic.rect;fillColor2=none;strokeWidth=1;size=22;indent=5;fontSize=13;" parent="-AKLjn0GjbrHsESCOIPd-227" vertex="1">
          <mxGeometry x="380" y="480" width="230" height="220" as="geometry" />
        </mxCell>
        <mxCell id="-AKLjn0GjbrHsESCOIPd-276" value="" style="verticalLabelPosition=bottom;verticalAlign=top;html=1;shape=mxgraph.basic.rect;fillColor2=none;strokeWidth=1;size=20;indent=5;fontSize=13;" parent="-AKLjn0GjbrHsESCOIPd-227" vertex="1">
          <mxGeometry x="47" y="33.63" width="283" height="656.37" as="geometry" />
        </mxCell>
        <mxCell id="-AKLjn0GjbrHsESCOIPd-287" value="" style="verticalLabelPosition=bottom;verticalAlign=top;html=1;shape=mxgraph.basic.rect;fillColor2=none;strokeWidth=1;size=20;indent=5;fontSize=13;fillColor=none;" parent="-AKLjn0GjbrHsESCOIPd-227" vertex="1">
          <mxGeometry x="6" y="8" width="1029" height="717" as="geometry" />
        </mxCell>
        <mxCell id="-AKLjn0GjbrHsESCOIPd-228" value="" style="verticalLabelPosition=bottom;verticalAlign=top;html=1;shape=mxgraph.basic.rect;fillColor2=none;strokeWidth=1;size=20;indent=5;fontSize=13;" parent="-AKLjn0GjbrHsESCOIPd-227" vertex="1">
          <mxGeometry x="390" y="613" width="80" height="80" as="geometry" />
        </mxCell>
        <mxCell id="-AKLjn0GjbrHsESCOIPd-231" value="" style="verticalLabelPosition=bottom;verticalAlign=top;html=1;shape=mxgraph.basic.rect;fillColor2=none;strokeWidth=1;size=20;indent=5;fontSize=13;" parent="-AKLjn0GjbrHsESCOIPd-227" vertex="1">
          <mxGeometry x="515" y="496.37" width="80" height="80" as="geometry" />
        </mxCell>
        <mxCell id="-AKLjn0GjbrHsESCOIPd-233" value="" style="verticalLabelPosition=bottom;verticalAlign=top;html=1;shape=mxgraph.basic.rect;fillColor2=none;strokeWidth=1;size=20;indent=5;fontSize=13;" parent="-AKLjn0GjbrHsESCOIPd-227" vertex="1">
          <mxGeometry x="390" y="30" width="205" height="296.63" as="geometry" />
        </mxCell>
        <mxCell id="-AKLjn0GjbrHsESCOIPd-259" value="" style="verticalLabelPosition=bottom;verticalAlign=top;html=1;shape=mxgraph.basic.rect;fillColor2=none;strokeWidth=1;size=20;indent=5;fontSize=13;" parent="-AKLjn0GjbrHsESCOIPd-227" vertex="1">
          <mxGeometry x="390" y="370" width="205" height="80" as="geometry" />
        </mxCell>
        <mxCell id="-AKLjn0GjbrHsESCOIPd-260" value="" style="verticalLabelPosition=bottom;verticalAlign=top;html=1;shape=mxgraph.basic.rect;fillColor2=none;strokeWidth=1;size=20;indent=5;fontSize=13;" parent="-AKLjn0GjbrHsESCOIPd-227" vertex="1">
          <mxGeometry x="640" y="370" width="380" height="80" as="geometry" />
        </mxCell>
        <mxCell id="-AKLjn0GjbrHsESCOIPd-263" value="" style="verticalLabelPosition=bottom;verticalAlign=top;html=1;shape=mxgraph.basic.rect;fillColor2=none;strokeWidth=1;size=20;indent=5;fontSize=13;" parent="-AKLjn0GjbrHsESCOIPd-227" vertex="1">
          <mxGeometry x="150" y="545" width="80" height="80" as="geometry" />
        </mxCell>
        <mxCell id="-AKLjn0GjbrHsESCOIPd-269" value="" style="verticalLabelPosition=bottom;verticalAlign=top;html=1;shape=mxgraph.basic.rect;fillColor2=none;strokeWidth=1;size=20;indent=5;fontSize=13;" parent="-AKLjn0GjbrHsESCOIPd-227" vertex="1">
          <mxGeometry x="150" y="300" width="80" height="80" as="geometry" />
        </mxCell>
        <mxCell id="-AKLjn0GjbrHsESCOIPd-275" value="" style="verticalLabelPosition=bottom;verticalAlign=top;html=1;shape=mxgraph.basic.rect;fillColor2=none;strokeWidth=1;size=20;indent=5;fontSize=13;" parent="-AKLjn0GjbrHsESCOIPd-227" vertex="1">
          <mxGeometry x="150" y="90" width="80" height="80" as="geometry" />
        </mxCell>
        <mxCell id="-AKLjn0GjbrHsESCOIPd-289" value="" style="verticalLabelPosition=bottom;verticalAlign=top;html=1;shape=mxgraph.basic.rect;fillColor2=none;strokeWidth=1;size=20;indent=5;fontSize=13;" parent="-AKLjn0GjbrHsESCOIPd-227" vertex="1">
          <mxGeometry x="650" y="480" width="170" height="230" as="geometry" />
        </mxCell>
        <mxCell id="-AKLjn0GjbrHsESCOIPd-295" value="" style="verticalLabelPosition=bottom;verticalAlign=top;html=1;shape=mxgraph.basic.rect;fillColor2=none;strokeWidth=1;size=20;indent=5;fontSize=13;" parent="-AKLjn0GjbrHsESCOIPd-227" vertex="1">
          <mxGeometry x="850" y="480" width="170" height="230" as="geometry" />
        </mxCell>
        <mxCell id="-AKLjn0GjbrHsESCOIPd-307" value="" style="verticalLabelPosition=bottom;verticalAlign=top;html=1;shape=mxgraph.basic.rect;fillColor2=none;strokeWidth=1;size=20;indent=5;fontSize=13;" parent="-AKLjn0GjbrHsESCOIPd-227" vertex="1">
          <mxGeometry x="640" y="30" width="376" height="290" as="geometry" />
        </mxCell>
        <mxCell id="-AKLjn0GjbrHsESCOIPd-298" value="" style="verticalLabelPosition=bottom;verticalAlign=top;html=1;shape=mxgraph.basic.rect;fillColor2=none;strokeWidth=1;size=20;indent=5;fontSize=13;" parent="-AKLjn0GjbrHsESCOIPd-227" vertex="1">
          <mxGeometry x="690" y="138" width="280" height="80" as="geometry" />
        </mxCell>
        <mxCell id="130" value="Labels" style="locked=1;" parent="0" />
        <mxCell id="-AKLjn0GjbrHsESCOIPd-256" value="" style="verticalLabelPosition=bottom;verticalAlign=top;html=1;shape=mxgraph.basic.rect;fillColor2=none;strokeWidth=1;size=20;indent=5;fontSize=13;fillColor=none;" parent="130" vertex="1">
          <mxGeometry x="6" y="8" width="1029" height="717" as="geometry" />
        </mxCell>
        <mxCell id="134" value="&lt;div&gt;&lt;font style=&quot;font-size: 18px;&quot;&gt;Tardis&lt;/font&gt;&lt;/div&gt;" style="text;html=1;strokeColor=none;fillColor=none;align=center;verticalAlign=middle;whiteSpace=wrap;" parent="130" vertex="1">
          <mxGeometry x="930" y="320" width="62" height="30" as="geometry" />
        </mxCell>
        <mxCell id="89rOBZgjkvMpjU4xvndv-257" value="&lt;div style=&quot;font-size: 15px;&quot;&gt;&lt;b&gt;&lt;font style=&quot;font-size: 15px;&quot;&gt;Flur Vorne&lt;br&gt;&lt;/font&gt;&lt;/b&gt;&lt;/div&gt;" style="text;html=1;strokeColor=none;fillColor=none;align=center;verticalAlign=middle;whiteSpace=wrap;" parent="130" vertex="1">
          <mxGeometry x="778.06" y="370" width="100" height="20" as="geometry" />
        </mxCell>
        <mxCell id="89rOBZgjkvMpjU4xvndv-256" value="&lt;div style=&quot;font-size: 15px;&quot;&gt;&lt;b&gt;&lt;font style=&quot;font-size: 15px;&quot;&gt;Küche&lt;/font&gt;&lt;/b&gt;&lt;/div&gt;" style="text;html=1;strokeColor=none;fillColor=none;align=center;verticalAlign=middle;whiteSpace=wrap;" parent="130" vertex="1">
          <mxGeometry x="930" y="585" width="40" height="20" as="geometry" />
        </mxCell>
        <mxCell id="89rOBZgjkvMpjU4xvndv-253" value="&lt;div style=&quot;font-size: 15px;&quot;&gt;&lt;b&gt;&lt;font style=&quot;font-size: 15px;&quot;&gt;E-Ecke&lt;/font&gt;&lt;/b&gt;&lt;/div&gt;" style="text;html=1;strokeColor=none;fillColor=none;align=center;verticalAlign=middle;whiteSpace=wrap;" parent="130" vertex="1">
          <mxGeometry x="480" y="161" width="40" height="20" as="geometry" />
        </mxCell>
        <mxCell id="89rOBZgjkvMpjU4xvndv-254" value="&lt;div style=&quot;font-size: 15px;&quot;&gt;&lt;b&gt;&lt;font style=&quot;font-size: 15px;&quot;&gt;Flur hinten&lt;/font&gt;&lt;/b&gt;&lt;/div&gt;" style="text;html=1;strokeColor=none;fillColor=none;align=center;verticalAlign=middle;whiteSpace=wrap;" parent="130" vertex="1">
          <mxGeometry x="450" y="370" width="120" height="20" as="geometry" />
        </mxCell>
        <mxCell id="89rOBZgjkvMpjU4xvndv-255" value="&lt;div style=&quot;font-size: 15px;&quot;&gt;&lt;b&gt;&lt;font style=&quot;font-size: 15px;&quot;&gt;Retro-Lounge&lt;/font&gt;&lt;/b&gt;&lt;/div&gt;" style="text;html=1;strokeColor=none;fillColor=none;align=center;verticalAlign=middle;whiteSpace=wrap;" parent="130" vertex="1">
          <mxGeometry x="420" y="585" width="130" height="20" as="geometry" />
        </mxCell>
        <mxCell id="38" value="&lt;b&gt;&lt;font style=&quot;font-size: 15px;&quot;&gt;Hauptraum&lt;/font&gt;&lt;/b&gt;" style="text;html=1;strokeColor=none;fillColor=none;align=center;verticalAlign=middle;whiteSpace=wrap;" parent="130" vertex="1">
          <mxGeometry x="250" y="400" width="40" height="20" as="geometry" />
        </mxCell>
        <mxCell id="89rOBZgjkvMpjU4xvndv-261" value="&lt;div style=&quot;font-size: 15px;&quot;&gt;&lt;b&gt;&lt;font style=&quot;font-size: 15px;&quot;&gt;Workshopraum&lt;/font&gt;&lt;/b&gt;&lt;/div&gt;" style="text;html=1;strokeColor=none;fillColor=none;align=center;verticalAlign=middle;whiteSpace=wrap;" parent="130" vertex="1">
          <mxGeometry x="827" y="161" width="40" height="20" as="geometry" />
        </mxCell>
        <mxCell id="24" value="&lt;font style=&quot;font-size: 16px;&quot;&gt;T&lt;/font&gt;&lt;div style=&quot;font-size: 16px;&quot;&gt;&lt;font style=&quot;font-size: 16px;&quot;&gt;a&lt;/font&gt;&lt;/div&gt;&lt;div style=&quot;font-size: 16px;&quot;&gt;&lt;font style=&quot;font-size: 16px;&quot;&gt;r&lt;/font&gt;&lt;/div&gt;&lt;div style=&quot;font-size: 16px;&quot;&gt;&lt;font style=&quot;font-size: 16px;&quot;&gt;d&lt;/font&gt;&lt;/div&gt;&lt;div style=&quot;font-size: 16px;&quot;&gt;&lt;font style=&quot;font-size: 16px;&quot;&gt;i&lt;/font&gt;&lt;/div&gt;&lt;div style=&quot;font-size: 16px;&quot;&gt;&lt;font style=&quot;font-size: 16px;&quot;&gt;s&lt;/font&gt;&lt;/div&gt;" style="text;html=1;strokeColor=none;fillColor=none;align=center;verticalAlign=middle;whiteSpace=wrap;horizontal=1;" parent="130" vertex="1">
          <mxGeometry x="290" y="532" width="60" height="105" as="geometry" />
        </mxCell>
        <mxCell id="89rOBZgjkvMpjU4xvndv-285" value="FaZzZ0r 2" style="text;html=1;strokeColor=none;fillColor=none;align=center;verticalAlign=middle;whiteSpace=wrap;" parent="130" vertex="1">
          <mxGeometry x="543" y="141" width="60" height="20" as="geometry" />
        </mxCell>
        <mxCell id="89rOBZgjkvMpjU4xvndv-262" value="&lt;div style=&quot;font-size: 15px;&quot;&gt;&lt;b&gt;&lt;font style=&quot;font-size: 15px;&quot;&gt;Foodarea&lt;/font&gt;&lt;/b&gt;&lt;/div&gt;" style="text;html=1;strokeColor=none;fillColor=none;align=center;verticalAlign=middle;whiteSpace=wrap;rotation=90;" parent="130" vertex="1">
          <mxGeometry x="738.06" y="529.88" width="40" height="20" as="geometry" />
        </mxCell>
        <mxCell id="pcRTGeTS2-AKzTQLvLOU-211" value="&lt;font style=&quot;font-size: 13px;&quot;&gt;Leinwand&lt;/font&gt;" style="text;strokeColor=none;align=center;fillColor=none;html=1;verticalAlign=middle;whiteSpace=wrap;rounded=0;" vertex="1" parent="130">
          <mxGeometry x="90" y="695" width="60" height="30" as="geometry" />
        </mxCell>
        <object label="heating" id="jrmmZ6NQDgwXE10PI7Lv-210">
          <mxCell style="locked=1;" parent="0" visible="0" />
        </object>
        <mxCell id="jrmmZ6NQDgwXE10PI7Lv-211" value="" style="rounded=0;whiteSpace=wrap;html=1;" parent="jrmmZ6NQDgwXE10PI7Lv-210" vertex="1">
          <mxGeometry x="870" y="20" width="90" height="30" as="geometry" />
        </mxCell>
        <mxCell id="jrmmZ6NQDgwXE10PI7Lv-212" value="" style="rounded=0;whiteSpace=wrap;html=1;" parent="jrmmZ6NQDgwXE10PI7Lv-210" vertex="1">
          <mxGeometry x="760" y="20" width="90" height="30" as="geometry" />
        </mxCell>
        <mxCell id="jrmmZ6NQDgwXE10PI7Lv-213" value="" style="rounded=0;whiteSpace=wrap;html=1;" parent="jrmmZ6NQDgwXE10PI7Lv-210" vertex="1">
          <mxGeometry x="660" y="20" width="90" height="30" as="geometry" />
        </mxCell>
        <mxCell id="jrmmZ6NQDgwXE10PI7Lv-214" value="" style="rounded=0;whiteSpace=wrap;html=1;" parent="jrmmZ6NQDgwXE10PI7Lv-210" vertex="1">
          <mxGeometry x="440" y="20" width="110" height="30" as="geometry" />
        </mxCell>
        <mxCell id="jrmmZ6NQDgwXE10PI7Lv-215" value="" style="rounded=0;whiteSpace=wrap;html=1;" parent="jrmmZ6NQDgwXE10PI7Lv-210" vertex="1">
          <mxGeometry x="220" y="20" width="110" height="30" as="geometry" />
        </mxCell>
        <mxCell id="jrmmZ6NQDgwXE10PI7Lv-216" value="" style="rounded=0;whiteSpace=wrap;html=1;rotation=-90;" parent="jrmmZ6NQDgwXE10PI7Lv-210" vertex="1">
          <mxGeometry x="-20" y="100" width="110" height="30" as="geometry" />
        </mxCell>
        <mxCell id="jrmmZ6NQDgwXE10PI7Lv-217" value="" style="rounded=0;whiteSpace=wrap;html=1;rotation=-90;" parent="jrmmZ6NQDgwXE10PI7Lv-210" vertex="1">
          <mxGeometry x="-20" y="300" width="110" height="30" as="geometry" />
        </mxCell>
        <mxCell id="jrmmZ6NQDgwXE10PI7Lv-218" value="" style="rounded=0;whiteSpace=wrap;html=1;rotation=-90;" parent="jrmmZ6NQDgwXE10PI7Lv-210" vertex="1">
          <mxGeometry x="-20" y="500" width="110" height="30" as="geometry" />
        </mxCell>
        <mxCell id="jrmmZ6NQDgwXE10PI7Lv-219" value="" style="rounded=0;whiteSpace=wrap;html=1;rotation=-90;direction=south;" parent="jrmmZ6NQDgwXE10PI7Lv-210" vertex="1">
          <mxGeometry x="280" y="640" width="30" height="110" as="geometry" />
        </mxCell>
        <mxCell id="jrmmZ6NQDgwXE10PI7Lv-220" value="" style="rounded=0;whiteSpace=wrap;html=1;rotation=-90;direction=south;" parent="jrmmZ6NQDgwXE10PI7Lv-210" vertex="1">
          <mxGeometry x="414" y="640" width="30" height="110" as="geometry" />
        </mxCell>
        <mxCell id="jrmmZ6NQDgwXE10PI7Lv-221" value="" style="rounded=0;whiteSpace=wrap;html=1;rotation=-90;direction=south;" parent="jrmmZ6NQDgwXE10PI7Lv-210" vertex="1">
          <mxGeometry x="550" y="640" width="30" height="110" as="geometry" />
        </mxCell>
        <mxCell id="jrmmZ6NQDgwXE10PI7Lv-222" value="" style="rounded=0;whiteSpace=wrap;html=1;rotation=-90;direction=south;" parent="jrmmZ6NQDgwXE10PI7Lv-210" vertex="1">
          <mxGeometry x="750" y="640" width="30" height="110" as="geometry" />
        </mxCell>
        <mxCell id="pcRTGeTS2-AKzTQLvLOU-212" value="" style="verticalLabelPosition=bottom;verticalAlign=top;html=1;shape=mxgraph.basic.rect;fillColor2=none;strokeWidth=1;size=20;indent=5;fontSize=13;fillColor=none;" vertex="1" parent="jrmmZ6NQDgwXE10PI7Lv-210">
          <mxGeometry x="6" y="8" width="1029" height="717" as="geometry" />
        </mxCell>
      </root>
    </mxGraphModel>
  </diagram>
</mxfile>
